<svg width="119" height="37" viewBox="0 0 119 37" fill="none" xmlns="http://www.w3.org/2000/svg">
<path d="M27.9435 26.3391L14.9043 33.2573L1.74647 26.4628C1.74647 21.7638 1.74647 16.6938 1.74647 11.9948L0 12.8604V8.28508L14.6704 0V4.699L5.23941 9.89264V24.4843C7.11923 25.5189 14.9043 29.1792 14.9043 29.1792C14.9043 29.1792 22.5863 25.423 24.4506 24.3606L27.9435 26.3391Z" fill="#0F0F0F"/>
<path fill-rule="evenodd" clip-rule="evenodd" d="M25.2656 0.50415H29.1079V6.19242L25.2656 4.09023V0.50415Z" fill="url(#paint0_linear)"/>
<path fill-rule="evenodd" clip-rule="evenodd" d="M16.7051 0L31.3754 8.5324V12.6131L29.629 11.5002V25.2262L25.5539 23.124V9.89264L16.7051 4.82266V0Z" fill="url(#paint1_linear)"/>
<path d="M47.8701 13.613H46.6338L45.7783 11.1814H42.0049L41.1494 13.613H39.9717L43.1475 4.88843H44.6943L47.8701 13.613ZM45.4209 10.1853L43.8916 5.9021L42.3564 10.1853H45.4209ZM56.208 13.613H54.7197L51.1748 9.63452H50.3838V13.613H49.2236V4.88843H50.3838V8.80249C50.583 8.79858 50.7705 8.77905 50.9463 8.7439C51.1221 8.70874 51.2881 8.64233 51.4443 8.54468C51.6006 8.45483 51.7549 8.32788 51.9072 8.16382C52.0596 7.99585 52.1943 7.79077 52.3115 7.54858C52.3623 7.44312 52.4209 7.3103 52.4873 7.15015C52.5576 6.98999 52.6279 6.82202 52.6982 6.64624C52.9678 5.9978 53.2822 5.54272 53.6416 5.28101C54.0049 5.01929 54.5381 4.88843 55.2412 4.88843H55.7041V5.92554H55.2178C54.9482 5.92554 54.7373 5.95093 54.585 6.00171C54.4326 6.04858 54.2959 6.12866 54.1748 6.24194C54.0615 6.34351 53.9619 6.48022 53.876 6.6521C53.7939 6.82397 53.708 7.02515 53.6182 7.25562C53.415 7.77124 53.208 8.15015 52.9971 8.39233C52.79 8.63452 52.5107 8.84546 52.1592 9.02515L56.208 13.613ZM64.3936 13.613H63.1572L62.3018 11.1814H58.5283L57.6729 13.613H56.4951L59.6709 4.88843H61.2178L64.3936 13.613ZM61.9443 10.1853L60.415 5.9021L58.8799 10.1853H61.9443ZM72.9717 15.5876H71.8701V13.5896H65.7061V15.5876H64.6045V12.5818H65.3076C65.8154 11.7458 66.2197 10.656 66.5205 9.31226C66.8252 7.9646 66.9775 6.48999 66.9775 4.88843H72.1455V12.5818H72.9717V15.5876ZM70.9854 12.5818V5.89624H68.0674C68.0127 7.29077 67.8408 8.56812 67.5518 9.72827C67.2627 10.8845 66.8877 11.8357 66.4268 12.5818H70.9854ZM80.4189 13.613H74.6709V4.88843H80.4189V5.91968H75.8311V8.3103H80.4189V9.34155H75.8311V12.5818H80.4189V13.613ZM90.0342 13.613H88.874V6.09546L86.4482 11.2107H85.7568L83.3486 6.09546V13.613H82.2646V4.88843H83.8467L86.1729 9.74585L88.4229 4.88843H90.0342V13.613ZM99.04 13.613H97.8857V6.6228L93.5498 13.613H92.3779V4.88843H93.5322V11.7732L97.8154 4.88843H99.04V13.613ZM107.519 13.613H106.358V10.1443H104.478L101.87 13.613H100.476L103.276 9.96851C102.69 9.76929 102.235 9.46265 101.911 9.04858C101.591 8.63062 101.431 8.07202 101.431 7.3728C101.431 6.92749 101.522 6.54468 101.706 6.22437C101.894 5.90015 102.14 5.63062 102.444 5.41577C102.722 5.22046 103.046 5.08374 103.417 5.00562C103.788 4.92749 104.198 4.88843 104.647 4.88843H107.519V13.613ZM106.358 9.17749V5.88452H104.589C104.253 5.88452 103.983 5.90601 103.78 5.94897C103.577 5.99194 103.392 6.07007 103.224 6.18335C103.044 6.30444 102.903 6.47437 102.802 6.69312C102.7 6.91187 102.649 7.1521 102.649 7.41382C102.649 7.72632 102.685 7.98608 102.755 8.19312C102.829 8.40015 102.946 8.58374 103.106 8.7439C103.282 8.91577 103.497 9.03101 103.751 9.0896C104.005 9.14819 104.3 9.17749 104.636 9.17749H106.358ZM46.6982 22.5251C46.6982 22.9119 46.6299 23.2712 46.4932 23.6033C46.3604 23.9314 46.1729 24.2166 45.9307 24.4587C45.6299 24.7595 45.2744 24.9861 44.8643 25.1384C44.4541 25.2869 43.9365 25.3611 43.3115 25.3611H42.1514V28.613H40.9912V19.8884H43.3584C43.8818 19.8884 44.3252 19.9333 44.6885 20.0232C45.0518 20.1091 45.374 20.2458 45.6553 20.4333C45.9873 20.656 46.2432 20.9333 46.4229 21.2654C46.6064 21.5974 46.6982 22.0173 46.6982 22.5251ZM45.4912 22.5544C45.4912 22.2537 45.4385 21.9919 45.333 21.7693C45.2275 21.5466 45.0674 21.365 44.8525 21.2244C44.665 21.1033 44.4502 21.0173 44.208 20.9666C43.9697 20.9119 43.667 20.8845 43.2998 20.8845H42.1514V24.3708H43.1299C43.5986 24.3708 43.9795 24.3298 44.2725 24.2478C44.5654 24.1619 44.8037 24.0271 44.9873 23.8435C45.1709 23.656 45.2998 23.4587 45.374 23.2517C45.4521 23.0447 45.4912 22.8123 45.4912 22.5544ZM53.9814 28.613H48.2334V19.8884H53.9814V20.9197H49.3936V23.3103H53.9814V24.3416H49.3936V27.5818H53.9814V28.613ZM63.5967 28.613H62.4365V21.0955L60.0107 26.2107H59.3193L56.9111 21.0955V28.613H55.8271V19.8884H57.4092L59.7354 24.7458L61.9854 19.8884H63.5967V28.613ZM72.4443 20.8904C72.7998 21.281 73.0713 21.7595 73.2588 22.3259C73.4502 22.8923 73.5459 23.5349 73.5459 24.2537C73.5459 24.9724 73.4482 25.6169 73.2529 26.1873C73.0615 26.7537 72.792 27.2263 72.4443 27.6052C72.085 27.9998 71.6592 28.2966 71.167 28.4958C70.6787 28.6951 70.1201 28.7947 69.4912 28.7947C68.8779 28.7947 68.3193 28.6931 67.8154 28.49C67.3154 28.2869 66.8896 27.9919 66.5381 27.6052C66.1865 27.2185 65.915 26.7439 65.7236 26.1814C65.5361 25.6189 65.4424 24.9763 65.4424 24.2537C65.4424 23.5427 65.5361 22.906 65.7236 22.3435C65.9111 21.7771 66.1846 21.2927 66.5439 20.8904C66.8877 20.5076 67.3135 20.2146 67.8213 20.0115C68.333 19.8083 68.8896 19.7068 69.4912 19.7068C70.1162 19.7068 70.6768 19.8103 71.1729 20.0173C71.6729 20.2205 72.0967 20.5115 72.4443 20.8904ZM72.3389 24.2537C72.3389 23.1208 72.085 22.2478 71.5771 21.6345C71.0693 21.0173 70.376 20.7087 69.4971 20.7087C68.6104 20.7087 67.9131 21.0173 67.4053 21.6345C66.9014 22.2478 66.6494 23.1208 66.6494 24.2537C66.6494 25.3982 66.9072 26.2751 67.4229 26.8845C67.9385 27.49 68.6299 27.7927 69.4971 27.7927C70.3643 27.7927 71.0537 27.49 71.5654 26.8845C72.0811 26.2751 72.3389 25.3982 72.3389 24.2537ZM82.0596 28.613H80.8994V24.3416H76.5459V28.613H75.3857V19.8884H76.5459V23.3103H80.8994V19.8884H82.0596V28.613ZM90.6318 20.9197H87.5146V28.613H86.3545V20.9197H83.2373V19.8884H90.6318V20.9197ZM98.6826 28.613H97.4463L96.5908 26.1814H92.8174L91.9619 28.613H90.7842L93.96 19.8884H95.5068L98.6826 28.613ZM96.2334 25.1853L94.7041 20.9021L93.1689 25.1853H96.2334Z" fill="black"/>
<defs>
<linearGradient id="paint0_linear" x1="27.1867" y1="5.82934" x2="27.1867" y2="0.504151" gradientUnits="userSpaceOnUse">
<stop stop-color="#FF4D00"/>
<stop offset="0.505208" stop-color="#FF8100"/>
<stop offset="0.734375" stop-color="#FFA800"/>
</linearGradient>
<linearGradient id="paint1_linear" x1="24.0403" y1="23.616" x2="24.0403" y2="2.81525e-06" gradientUnits="userSpaceOnUse">
<stop stop-color="#FF4D00"/>
<stop offset="0.505208" stop-color="#FF8100"/>
<stop offset="0.734375" stop-color="#FFA800"/>
</linearGradient>
</defs>
</svg>
